<?xml version="1.0" standalone="no"?>
<!DOCTYPE svg PUBLIC "-//W3C//DTD SVG 20010904//EN"
 "http://www.w3.org/TR/2001/REC-SVG-20010904/DTD/svg10.dtd">
<svg version="1.0" xmlns="http://www.w3.org/2000/svg"
 width="1024.000000pt" height="64.000000pt" viewBox="0 0 1024.000000 64.000000"
 preserveAspectRatio="xMidYMid meet">

<g transform="translate(0.000000,64.000000) scale(0.100000,-0.100000)"
fill="#000000" stroke="none">
<path d="M1073 350 c-5 -17 -14 -20 -69 -20 -34 0 -66 -4 -69 -10 -4 -6 21
-10 68 -10 70 0 75 -1 70 -20 -5 -17 -14 -20 -68 -20 -81 0 -95 -14 -95 -98
l0 -62 -64 0 c-36 0 -68 -4 -71 -10 -4 -6 23 -10 74 -10 l81 0 0 80 0 80 80 0
80 0 0 60 c0 60 -7 77 -17 40z"/>
<path d="M238 244 c-5 -4 -8 -36 -8 -71 l0 -63 -64 0 c-36 0 -68 -4 -71 -10
-4 -7 93 -10 284 -10 l291 0 0 81 c0 51 -4 78 -10 74 -5 -3 -10 -35 -10 -70
l0 -64 -200 -3 -199 -3 -3 73 c-2 41 -6 70 -10 66z"/>
<path d="M167 193 c-16 -18 -16 -21 -2 -33 20 -17 27 -9 23 25 -3 27 -3 27
-21 8z"/>
<path d="M830 173 c0 -36 0 -36 20 -18 19 17 19 19 4 37 -23 24 -24 24 -24
-19z"/>
</g>
</svg>
